<?xml version="1.0" encoding="utf-8"?>
<!-- Generated by IcoMoon.io -->
<!DOCTYPE svg PUBLIC "-//W3C//DTD SVG 1.1//EN" "http://www.w3.org/Graphics/SVG/1.1/DTD/svg11.dtd">
<svg version="1.1" 
	xmlns="http://www.w3.org/2000/svg" 
	xmlns:xlink="http://www.w3.org/1999/xlink" width="512" height="512" viewBox="0 0 512 512">
	<defs>
		<linearGradient id="linear" x1="0%" y1="0%" x2="100%" y2="0%">
			<stop offset="0%" stop-color="#061161"/>
			<stop offset="100%" stop-color="#780206"/>
		</linearGradient>
	</defs>
	<g>
	</g>
	<path d="M474.419 25.938l-19.364-4.946-49.623 55.060-1.003 8.264-150.067 155.658c0 0-28.672 33.863-42.69 21.34 0 0-12.226-5.918-14.070-23.624 0 0-19.774-23.398-33.772 3.358 0 0-7.363 26.788-9.81 29.43 0 0-2.458 11.796-30.198 15.882 0 0-42.261 5.202-66.918 25.62 0 0-43.008 40.663-26.235 88.883 0 0 25.835 64.103 82.309 86.323 0 0 77.22 37.356 116.593-36.782 0 0 13.486-23.562 16.937-73.063 0 0 1.679-16.179 28.406-21.801 0 0 35.338-13.538 33.3-46.704 0 0-4.188-21.76-22.887-41.677l4.004-3.666-4.587-4.905-4.598 4.905-1.956-1.843 143.667-157.982 7.577-0.86 55.757-57.917-10.772-18.954zM135.045 433.92c-21.73 0-39.322-17.582-39.322-39.301s17.603-39.342 39.322-39.342c21.709 0 39.301 17.623 39.301 39.342s-17.593 39.301-39.301 39.301z" fill="url(#linear)" />
	<path d="M404.521 68.014c3.358 0.103 6.185-2.376 6.257-5.56 0.123-3.184-2.478-5.837-5.837-5.959-3.318-0.144-6.144 2.355-6.257 5.54-0.103 3.205 2.519 5.837 5.837 5.98z" fill="#000000" />
	<path d="M416.822 43.022c3.34 0.121 5.954 2.8 5.838 5.981-0.116 3.182-2.918 5.663-6.257 5.541-3.34-0.121-5.954-2.8-5.838-5.981 0.116-3.182 2.918-5.663 6.257-5.541z" fill="#000000" />
	<path d="M443.32 15.411c-3.338-0.123-6.144 2.355-6.236 5.54-0.123 3.205 2.498 5.858 5.817 5.98 3.358 0.102 6.164-2.375 6.257-5.561 0.123-3.175-2.478-5.816-5.837-5.96z" fill="#000000" />
	<path d="M429.328 28.371c3.34 0.122 5.954 2.799 5.838 5.982-0.116 3.182-2.918 5.663-6.257 5.541-3.34-0.121-5.954-2.8-5.838-5.981 0.116-3.182 2.918-5.663 6.257-5.541z" fill="#000000" />
</svg>
